<?xml version="1.0" encoding="utf-8"?>
<!-- Generator: Adobe Illustrator 19.1.0, SVG Export Plug-In . SVG Version: 6.00 Build 0)  -->
<svg version="1.1" id="Capa_1" xmlns="http://www.w3.org/2000/svg" xmlns:xlink="http://www.w3.org/1999/xlink" x="0px" y="0px"
	 viewBox="-497 326.8 44.2 44.2" style="enable-background:new -497 326.8 44.2 44.2;" xml:space="preserve">
<style type="text/css">
	.st0{fill:#FFFFFF;}
</style>
<g>
	<g>
		<path class="st0" d="M-474.9,371c-12.2,0-22.1-9.9-22.1-22.1c0-12.2,9.9-22.1,22.1-22.1c12.2,0,22.1,9.9,22.1,22.1
			C-452.8,361.1-462.7,371-474.9,371z M-474.9,328.3c-11.4,0-20.6,9.2-20.6,20.6c0,11.4,9.2,20.6,20.6,20.6
			c11.4,0,20.6-9.2,20.6-20.6C-454.3,337.5-463.5,328.3-474.9,328.3z"/>
		<path class="st0" d="M-472.3,356.6c-0.2,0-0.4-0.1-0.5-0.2l-7.3-7.3c-0.3-0.3-0.3-0.8,0-1.1l7.3-7.3c0.3-0.3,0.8-0.3,1.1,0
			s0.3,0.8,0,1.1l-6.8,6.8l6.8,6.8c0.3,0.3,0.3,0.8,0,1.1C-471.9,356.6-472.1,356.6-472.3,356.6z"/>
	</g>
</g>
</svg>
