<?xml version="1.0" encoding="utf-8"?>
<!-- Generator: Adobe Illustrator 18.1.1, SVG Export Plug-In . SVG Version: 6.00 Build 0)  -->
<!DOCTYPE svg PUBLIC "-//W3C//DTD SVG 1.1//EN" "http://www.w3.org/Graphics/SVG/1.1/DTD/svg11.dtd">
<svg version="1.1" id="Capa_1" xmlns="http://www.w3.org/2000/svg" xmlns:xlink="http://www.w3.org/1999/xlink" x="0px" y="0px"
	 viewBox="-283 374.8 44.2 44.2" enable-background="new -283 374.8 44.2 44.2" xml:space="preserve">
<g>
	<g>
		<g>
			<path fill="#FFFFFF" d="M-267.5,404.2c-0.2,0-0.4-0.1-0.5-0.2c-0.3-0.3-0.3-0.8,0-1.1l13.2-13.2c0.3-0.3,0.8-0.3,1.1,0
				s0.3,0.8,0,1.1l-13.2,13.2C-267.1,404.1-267.3,404.2-267.5,404.2z"/>
		</g>
		<g>
			<path fill="#FFFFFF" d="M-254.3,404.2c-0.2,0-0.4-0.1-0.5-0.2l-13.2-13.2c-0.3-0.3-0.3-0.8,0-1.1c0.3-0.3,0.8-0.3,1.1,0
				l13.2,13.2c0.3,0.3,0.3,0.8,0,1.1C-253.9,404.1-254.1,404.2-254.3,404.2z"/>
		</g>
		<path fill="#FFFFFF" d="M-260.9,419c-12.2,0-22.1-9.9-22.1-22.1c0-12.2,9.9-22.1,22.1-22.1c12.2,0,22.1,9.9,22.1,22.1
			S-248.7,419-260.9,419z M-260.9,376.3c-11.4,0-20.6,9.2-20.6,20.6c0,11.4,9.2,20.6,20.6,20.6c11.4,0,20.6-9.2,20.6-20.6
			S-249.5,376.3-260.9,376.3z"/>
	</g>
</g>
</svg>
