<?xml version="1.0" encoding="utf-8"?>
<!-- Generator: Adobe Illustrator 19.0.1, SVG Export Plug-In . SVG Version: 6.00 Build 0)  -->
<svg version="1.1" id="Capa_1" xmlns="http://www.w3.org/2000/svg" xmlns:xlink="http://www.w3.org/1999/xlink" x="0px" y="0px"
	 viewBox="-54 145.3 502.7 502.7" style="enable-background:new -54 145.3 502.7 502.7;" xml:space="preserve">
<style type="text/css">
	.st0{fill:#FFFFFF;}
</style>
<g>
	<g>
		<g>
			<path class="st0" d="M84.3,313.3h258.8v-16.2c0-13.4-10.9-24.3-24.3-24.3H212v-14.1c0-20.1-16.4-36.4-36.4-36.4h-62.1
				c-9.7,0-18.8,3.8-25.7,10.7c-6.9,6.9-10.7,16-10.7,25.7v14.1H-29.7c-13.4,0-24.3,10.9-24.3,24.2v216.7l81.6-165.3
				C37.5,328.5,61.9,313.3,84.3,313.3z M101.4,258.8c0-3.2,1.3-6.3,3.6-8.5c2.3-2.3,5.3-3.6,8.5-3.6h62.1c6.7,0,12.1,5.4,12.1,12.1
				v14.1h-86.4L101.4,258.8L101.4,258.8z"/>
			<path class="st0" d="M432.9,337.6H84.3c-13.3,0-29.1,9.8-34.9,21.7l-93.7,189.9c-5.9,11.9,0.2,21.7,13.5,21.7h348.6
				c13.3,0,29.1-9.8,35-21.7l93.7-189.9C452.3,347.4,446.2,337.6,432.9,337.6z"/>
		</g>
	</g>
</g>
</svg>
