<?xml version="1.0" encoding="utf-8"?>
<!-- Generator: Adobe Illustrator 19.0.1, SVG Export Plug-In . SVG Version: 6.00 Build 0)  -->
<svg version="1.1" id="Capa_1" xmlns="http://www.w3.org/2000/svg" xmlns:xlink="http://www.w3.org/1999/xlink" x="0px" y="0px"
	 viewBox="-187 279.9 235.1 235.1" style="enable-background:new -187 279.9 235.1 235.1;" xml:space="preserve">
<style type="text/css">
	.st0{fill:#FFFFFF;}
</style>
<g>
	<g>
		<path class="st0" d="M-31,338.8h18l-12.4,69.8c-1.4,8.1-1.4,13.9-0.1,17.5c1.3,3.6,4.2,5.4,8.6,5.4s8.8-1,13.1-3.1
			c4.3-2.1,8.1-5.2,11.6-9.5s6.2-9.7,8.4-16.2c2.1-6.5,3.2-14.2,3.2-23.2c0-12.9-2.2-23.9-6.4-33C8.8,337.4,2.9,329.9-4.6,324
			c-7.5-5.9-16.3-10.3-26.4-13c-10.1-2.7-21-4.1-32.7-4.1c-13.4,0-25.8,2.4-37.3,7.2c-11.5,4.8-21.5,11.4-30,19.8
			c-8.5,8.4-15.1,18.4-19.9,30c-4.8,11.6-7.2,24.1-7.2,37.7c0,13.4,2,25.4,6,36c4,10.6,9.9,19.7,17.6,27.2
			c7.7,7.5,17.3,13.2,28.7,17.2s24.5,6,39.3,6c5,0,10.6-0.6,17-1.8c6.4-1.2,12.1-3,17.3-5.4l8,24.7c-7,3.4-14.2,5.8-21.5,7.2
			c-7.3,1.4-15.7,2.1-25.1,2.1c-16.6,0-32.1-2.4-46.2-7.2c-14.2-4.8-26.4-11.9-36.8-21.4c-10.4-9.4-18.5-21.2-24.3-35.1
			c-5.8-14-8.7-30.2-8.7-48.5c0-18.7,3.3-35.6,10-50.7c6.7-15.1,15.7-28,27-38.6c11.3-10.6,24.5-18.8,39.4-24.6
			c14.9-5.7,30.7-8.6,47.4-8.6c15.8,0,30.5,2.3,44,6.8c13.6,4.6,25.3,11.1,35.3,19.6c10,8.5,17.8,18.9,23.4,31.2
			c5.7,12.3,8.5,26.2,8.5,41.8c0,11-1.9,21.3-5.8,30.9c-3.9,9.6-9.2,17.9-16,25c-6.8,7-14.7,12.6-23.7,16.7c-9,4.1-18.7,6.2-29,6.2
			c-4.3,0-8.3-0.5-12-1.4c-3.7-0.9-6.8-2.5-9.3-4.8c-2.5-2.2-4.3-5.2-5.5-8.8c-1.2-3.6-1.6-8.1-1-13.4h-1c-2.6,3.6-5.4,7.1-8.4,10.6
			c-3,3.4-6.3,6.5-9.9,9.1c-3.6,2.7-7.6,4.8-11.8,6.3c-4.3,1.5-9,2.3-14.2,2.3c-4.1,0-8.1-0.9-11.8-2.7c-3.8-1.8-7-4.3-9.8-7.6
			c-2.8-3.3-4.9-7.2-6.6-11.8c-1.6-4.6-2.4-9.8-2.4-15.4c0-10.6,1.7-21,5.1-31c3.4-10,8.1-18.9,14-26.6s12.8-13.9,20.6-18.7
			c7.8-4.7,16.1-7.1,24.8-7.1c6,0,11.1,0.9,15.2,2.7c4.1,1.8,7.9,4.2,11.3,7.1L-31,338.8z M-47.2,369.9c-2.2-1.9-4.5-3.4-6.9-4.4
			c-2.4-1-5.4-1.5-9-1.5c-5.1,0-9.9,1.5-14.3,4.4c-4.4,2.9-8.2,6.7-11.3,11.3c-3.2,4.6-5.6,9.8-7.3,15.6c-1.7,5.8-2.6,11.4-2.6,16.9
			c0,5.7,1.2,10.3,3.5,13.9c2.3,3.6,6.3,5.4,12,5.4c2.4,0,5-0.7,7.7-2.2c2.8-1.5,5.4-3.4,8-5.8c2.6-2.4,5.1-5.2,7.5-8.2
			c2.4-3.1,4.5-6.4,6.4-9.8L-47.2,369.9z"/>
	</g>
</g>
</svg>
