<?xml version="1.0" encoding="utf-8"?>
<!-- Generator: Adobe Illustrator 18.1.1, SVG Export Plug-In . SVG Version: 6.00 Build 0)  -->
<!DOCTYPE svg PUBLIC "-//W3C//DTD SVG 1.1//EN" "http://www.w3.org/Graphics/SVG/1.1/DTD/svg11.dtd">
<svg version="1.1" id="Capa_1" xmlns="http://www.w3.org/2000/svg" xmlns:xlink="http://www.w3.org/1999/xlink" x="0px" y="0px"
	 viewBox="-90 181.9 430.1 430.1" enable-background="new -90 181.9 430.1 430.1" xml:space="preserve">
<g>
	<path id="LinkedIn" fill="#FFFFFF" d="M340.1,443.4v159h-92.2V454.1c0-37.3-13.3-62.7-46.7-62.7c-25.5,0-40.6,17.1-47.3,33.7
		c-2.4,5.9-3.1,14.2-3.1,22.5v154.9H58.6c0,0,1.2-251.3,0-277.3h92.2v39.3c-0.2,0.3-0.4,0.6-0.6,0.9h0.6v-0.9
		c12.3-18.9,34.1-45.8,83.1-45.8C294.6,318.6,340.1,358.2,340.1,443.4z M-37.8,191.4c-31.5,0-52.2,20.7-52.2,47.9
		c0,26.6,20,47.9,51,47.9h0.6c32.2,0,52.2-21.3,52.2-47.9C13.1,212.1-6.3,191.4-37.8,191.4z M-84.5,602.4H7.7V325.1h-92.2V602.4z"/>
</g>
</svg>
