<?xml version="1.0" encoding="utf-8"?>
<!-- Generator: Adobe Illustrator 23.0.4, SVG Export Plug-In . SVG Version: 6.00 Build 0)  -->
<svg version="1.1" id="Layer_1" xmlns="http://www.w3.org/2000/svg" xmlns:xlink="http://www.w3.org/1999/xlink" x="0px" y="0px"
	 viewBox="0 0 193.8 153.2" style="enable-background:new 0 0 193.8 153.2;" xml:space="preserve">
<style type="text/css">
	.st0{display:none;}
	.st1{display:inline;}
	.st2{opacity:0.5;clip-path:url(#SVGID_2_);}
	.st3{clip-path:url(#SVGID_4_);}
	.st4{clip-path:url(#SVGID_6_);}
	.st5{clip-path:url(#SVGID_8_);}
	.st6{clip-path:url(#SVGID_10_);}
	.st7{clip-path:url(#SVGID_12_);fill:#FFFFFF;}
	.st8{clip-path:url(#SVGID_14_);}
	.st9{clip-path:url(#SVGID_16_);}
	.st10{clip-path:url(#SVGID_18_);}
	.st11{clip-path:url(#SVGID_20_);}
	.st12{clip-path:url(#SVGID_22_);}
</style>
<g class="st0">
	<g class="st1">
		<defs>
			<rect id="SVGID_1_" x="827.2" y="-129.4" width="900" height="2105"/>
		</defs>
		<clipPath id="SVGID_2_">
			<use xlink:href="#SVGID_1_"  style="overflow:visible;"/>
		</clipPath>
		<g class="st2">
			<g>
				<defs>
					<rect id="SVGID_3_" x="827.2" y="-129.4" width="900" height="2105"/>
				</defs>
				<clipPath id="SVGID_4_">
					<use xlink:href="#SVGID_3_"  style="overflow:visible;"/>
				</clipPath>
				<g class="st3">
					<g>
						<defs>
							<rect id="SVGID_5_" x="827.2" y="-129.4" width="900" height="2105"/>
						</defs>
						<clipPath id="SVGID_6_">
							<use xlink:href="#SVGID_5_"  style="overflow:visible;"/>
						</clipPath>
						<g class="st4">
							<g>
								<defs>
									<rect id="SVGID_7_" x="251.7" y="-128.9" width="1879" height="3988"/>
								</defs>
								<clipPath id="SVGID_8_">
									<use xlink:href="#SVGID_7_"  style="overflow:visible;"/>
								</clipPath>
								<g class="st5">
								</g>
							</g>
						</g>
					</g>
				</g>
			</g>
		</g>
	</g>
</g>
<g class="st0">
	<g class="st1">
		<defs>
			<rect id="SVGID_9_" x="877.2" y="37.6" width="800" height="1635"/>
		</defs>
		<clipPath id="SVGID_10_">
			<use xlink:href="#SVGID_9_"  style="overflow:visible;"/>
		</clipPath>
		<g class="st6">
			<g>
				<defs>
					<rect id="SVGID_11_" x="827.2" y="-129.4" width="900" height="2105"/>
				</defs>
				<clipPath id="SVGID_12_">
					<use xlink:href="#SVGID_11_"  style="overflow:visible;"/>
				</clipPath>
				<path class="st7" d="M872.2,32.6h810v1645h-810L872.2,32.6z"/>
			</g>
		</g>
	</g>
</g>
<g class="st0">
	<g class="st1">
		<defs>
			<rect id="SVGID_13_" x="827.2" y="-129.4" width="900" height="2105"/>
		</defs>
		<clipPath id="SVGID_14_">
			<use xlink:href="#SVGID_13_"  style="overflow:visible;"/>
		</clipPath>
		<g class="st8">
			<text transform="matrix(1 0 0 1 980.376 1499.629)" style="fill:#4D4D4D; font-family:'Poppins-Light'; font-size:16px;">G4,!&apos;(),%*C!&quot;*5!0%)#!50))0!-6))(!&apos;44(!:A!H:6!/%0!/%0!.4*0).094(#:6+%(!+*!48!</text>
		</g>
	</g>
	<g class="st1">
		<defs>
			<rect id="SVGID_15_" x="827.2" y="-129.4" width="900" height="2105"/>
		</defs>
		<clipPath id="SVGID_16_">
			<use xlink:href="#SVGID_15_"  style="overflow:visible;"/>
		</clipPath>
		<g class="st9">
			<text transform="matrix(1 0 0 1 1070.8719 1527.629)" style="fill:#4D4D4D; font-family:'Poppins-Light'; font-size:16px;">;;;AIA1%!49!.4*0).0%%(!4*5!48!JKL!MNO!PL!KQ!PR!NNA</text>
		</g>
	</g>
	<g class="st1">
		<defs>
			<rect id="SVGID_17_" x="827.2" y="-129.4" width="900" height="2105"/>
		</defs>
		<clipPath id="SVGID_18_">
			<use xlink:href="#SVGID_17_"  style="overflow:visible;"/>
		</clipPath>
		<g class="st10">
			<text transform="matrix(1 0 0 1 1243.9919 1583.629)" style="fill:#4D4D4D; font-family:'Poppins-Light'; font-size:16px;">S40!5*%6F</text>
		</g>
	</g>
	<g class="st1">
		<defs>
			<rect id="SVGID_19_" x="827.2" y="-129.4" width="900" height="2105"/>
		</defs>
		<clipPath id="SVGID_20_">
			<use xlink:href="#SVGID_19_"  style="overflow:visible;"/>
		</clipPath>
		<g class="st11">
			<text transform="matrix(1 0 0 1 1140.4399 1611.629)" style="fill:#4D4D4D; font-family:'Poppins-Light'; font-size:16px;">T!E%0!U)*0#V**%*!W*+1)-%!S%)#!T!</text>
		</g>
	</g>
	<g class="st1">
		<defs>
			<rect id="SVGID_21_" x="827.2" y="-129.4" width="900" height="2105"/>
		</defs>
		<clipPath id="SVGID_22_">
			<use xlink:href="#SVGID_21_"  style="overflow:visible;"/>
		</clipPath>
		<g class="st12">
			<text transform="matrix(1 0 0 1 1012.984 1109.629)" style="fill:#4D4D4D; font-family:'Poppins-Light'; font-size:16px;">X%-+2-!/+%(!$%!)66%(%%(50%!1%%6$%*!&apos;)*!/%0!,64%$*+%:;%!=7?44$@840F</text>
		</g>
	</g>
</g>
<path d="M46,10c-12.4,7.8-26.6,25.5-27.9,43.3c-0.4,1-1.1,0.9-1.9,0.7c-4.1-1.1-1.9-10.8-0.2-16.1c4.5-14.2,10.7-23.8,16.2-37
	c1-1,5.9,1.9,5.9,4.1c0,2.3-4.8,9.6-6.9,14.4C36.7,13.5,42.1,8,48.4,4c3.1-1.7,5.7,2.4,4.7,5.4c-1.4,3.3-4.6,11.4-5.9,14.6
	C52.7,16.9,64.4,7.6,69.5,4c2.5-1.8,6.4,5.6,4.5,6.6c-8.4,14.5-13.2,24-13.1,39.8c0,0.5-0.6,0.5-0.9,0.5c-1.5-0.1-2.5-0.5-3.3-1.1
	c-8-6.5,6.3-34,10.4-39.8c-7.9,4.8-18.7,17.1-24.3,24.8c-1.8,0.7-5.7-1.3-5.4-4.9C39.4,23.5,43.2,15.8,46,10z M71.3,44.4
	c-0.7-3.9,0.1-10.3,1.3-14c0.9-1.5,4.2,0.2,4.5,1.4c0.6,2.3-4,11.4-2.5,12.8c2,1.9,7.4-11.6,9.3-14.8c0.4-0.7,2.9,0.3,3.3,1.7
	c0.8,3.1,0.3,6.9-0.3,10.1c3.3-2.6,6.3-4.6,9.9-6.2c0.7-0.5,5-0.9,1.7,1.3c-4.1,2.6-8.4,6.1-12,9c-0.4,0.3-0.5,0.6-0.6,1.1
	c-1.5,9.8-7.3,25.3-14.3,33.2C67,85.2,61,84.2,60.9,76.9c2.3-11,10.7-20.5,20.2-30.8c1.3-0.9,2.3-7.6,1.9-8.3
	c-1.7,3.1-4.4,9.4-6.5,9.7C74.1,48,71.8,46.7,71.3,44.4z M79.6,50.9C72.7,58.3,60.8,76.4,64,79.7C66.8,80.8,79.3,55.5,79.6,50.9z
	 M59.7,121.7c-1.6,0-2.8-1.1-2.8-2.7c0-0.4,0.1-1,0.3-1.5c-0.9-0.6-2.7-0.9-4.6-0.9c-3.6,0-5.7,1.9-5.7,3.8c0,2.3,2.4,3.1,6.7,4.2
	c5.3,1.3,9.8,2.8,9.8,7.9c0,5-4.9,7.9-10.5,7.9c-3.8,0-7.7-1.2-9.5-3c-0.9-0.9-1.4-2-1.4-3.3c0-1.5,1.1-2.9,2.7-2.9
	c1.7,0,2.8,1.1,2.8,2.7c0,0.6-0.2,1.1-0.4,1.6c0.9,0.7,3,1.5,5.9,1.5c3.6,0,6.4-1.5,6.4-4.1c0-2.4-2.5-3.3-6.2-4.3
	c-6.4-1.6-10.3-3.1-10.3-8c0-3.9,3.7-7.6,10-7.6c3.5,0,6.7,1.1,8.3,2.7c0.9,0.9,1.4,1.9,1.4,3C62.3,120.5,61.2,121.7,59.7,121.7
	L59.7,121.7z M67.5,148.3h4.2v-30.9h-4.2v-3.8h8.3v3.8c2.2-2.5,4.9-4.3,8.8-4.3c6.9,0,12.4,5.4,12.4,13.5c0,7.4-5.1,13.8-13,13.8
	c-3.1,0-6-1.2-8.2-3v10.9H81v3.7H67.4L67.5,148.3L67.5,148.3z M92.6,126.7c0.1-5.9-3.6-9.8-8.6-9.8c-3.4,0-5.9,1.7-8.1,3.9v13
	c2,1.7,4.5,2.9,7.9,2.9C88.9,136.6,92.5,132.4,92.6,126.7z M102.5,126.8c0-7.4,5.4-13.6,13.5-13.6s13.5,6.2,13.5,13.6
	c0,7.5-5.4,13.6-13.5,13.6C107.8,140.4,102.5,134.3,102.5,126.8z M125.1,126.8c0-5.8-3.7-9.9-9.1-9.9s-9.1,4.1-9.1,9.9
	c0,5.9,3.7,9.9,9.1,9.9S125.1,132.6,125.1,126.8z M138.8,137.3c-0.5-1-0.7-2.2-0.7-3.6v-16.3h-4.9v-3.8h4.9v-6.4l4.2-1.7v8h8.1v3.8
	h-8.1v15.7c0,0.9,0.1,1.5,0.4,2c0.5,0.9,1.5,1.4,3.1,1.4c1.5,0,3.5-0.7,4.9-1.6l-0.6,4.1c-1.4,0.7-3.2,1.5-5.6,1.5
	C141.8,140.4,139.8,139.3,138.8,137.3z"/>
<path d="M2.7,107.8c-0.8,0-1.5-0.7-1.5-1.5V61.9c0-0.8,0.7-1.5,1.5-1.5h32.3c0.8,0,1.5,0.7,1.5,1.5v8.9c0,0.8-0.7,1.5-1.5,1.5H14.5
	c-0.7,0-1.2,0.6-1.2,1.2v5.9c0,0.7,0.6,1.2,1.2,1.2h16.7c0.8,0,1.5,0.7,1.5,1.5v8.1c0,0.8-0.7,1.5-1.5,1.5H14.5
	c-0.7,0-1.2,0.6-1.2,1.2v13.6c0,0.8-0.7,1.5-1.5,1.5H2.7z M38.9,84.1c0-13.6,11.5-24.6,25.1-24.6c13.8,0,25.2,11.1,25.2,24.6
	s-11.3,24.6-25.2,24.6C50.4,108.7,38.9,97.7,38.9,84.1z M51.2,84.1C51.2,91.3,57,97,64.1,97c7.3,0,12.9-5.7,12.9-12.9
	s-5.6-12.9-12.9-12.9C57,71.3,51.2,77,51.2,84.1z M92,84.1c0-13.6,11.5-24.6,25.2-24.6c13.8,0,25.2,11.1,25.2,24.6
	s-11.3,24.6-25.2,24.6C103.5,108.7,92,97.7,92,84.1z M104.3,84.1c0,7.2,5.8,12.9,12.9,12.9c7.3,0,12.9-5.7,12.9-12.9
	s-5.6-12.9-12.9-12.9C110.1,71.3,104.3,77,104.3,84.1z M148.8,107.8c-0.8,0-1.5-0.7-1.5-1.5V61.9c0-0.8,0.7-1.5,1.5-1.5h20.5
	c14.8,0,22.4,10.8,22.4,23.7c0,12.9-7.6,23.7-22.4,23.7H148.8z M168.5,72.2h-7.7c-0.7,0-1.2,0.6-1.2,1.2v21.5c0,0.7,0.6,1.2,1.2,1.2
	h7.7c7.2,0,11.1-4.9,11.1-12C179.5,77,175.7,72.2,168.5,72.2z"/>
</svg>
